<svg width="32" height="32" viewBox="0 0 32 32" fill="none" xmlns="http://www.w3.org/2000/svg">
<rect width="32" height="32" rx="16" fill="white"/>
<path d="M18.99 22.2454H25.3456V24.2963C25.3456 24.8056 24.9122 25.2222 24.3826 25.2222H19.953C19.4233 25.2222 18.99 24.8056 18.99 24.2963V22.2454Z" fill="#FE2458"/>
<path d="M5.61886 18.3235L12.9822 14.761C13.4554 14.5321 14.0372 14.7171 14.2753 15.172L14.8055 16.1852L5.7217 20.5801L5.19148 19.5668C4.95343 19.1119 5.14575 18.5524 5.61886 18.3235Z" fill="black"/>
<path d="M15.7978 25.2222H7.94C7.1937 25.2222 6.58704 24.6389 6.58704 23.9213V21.5278L8.90778 20.2963H17.1507V23.9167C17.1507 24.6343 16.5441 25.2176 15.7978 25.2176V25.2222Z" fill="black"/>
<path d="M11.3585 19.3519H15.9278L15.1767 18.5926C14.6663 18.0787 13.8526 17.963 13.2122 18.3194L11.3585 19.3519Z" fill="black"/>
<path d="M25.9619 5.77778H18.3737C17.8104 5.77778 17.3722 6.24537 17.43 6.78241L17.4685 7.15278H26.867L26.9056 6.78241C26.9633 6.24537 26.5252 5.77778 25.9619 5.77778Z" fill="#FE2458"/>
<path d="M18.9226 21.0602H25.413L26.7756 8.05556H17.5648L18.9226 21.0602Z" fill="#FE2458"/>
</svg>
