<?xml version="1.0" encoding="UTF-8"?>
<svg id="Layer_1" data-name="Layer 1" xmlns="http://www.w3.org/2000/svg" viewBox="0 0 54 54">
  <defs>
    <style>
      .cls-1 {
        fill: none;
      }

      .cls-2 {
        fill: #fe2458;
      }
    </style>
  </defs>
  <path class="cls-1" d="M27.03,16.11s.02,0,.03,0l1.11-1.31c-.36-.13-.74-.22-1.15-.22-1.81,0-3.27,1.47-3.27,3.27s1.47,3.27,3.27,3.27,3.27-1.47,3.27-3.27c0-.58-.16-1.11-.43-1.58l-1.13,1.32c.01,.09,.03,.17,.03,.26,0,.96-.78,1.75-1.75,1.75s-1.75-.78-1.75-1.75,.78-1.75,1.75-1.75Z"/>
  <path class="cls-1" d="M32.49,13.19l-1.64,1.93,6.49,5.58c.4,.34,.62,.84,.62,1.36v20.1c0,.99-.8,1.8-1.8,1.8H17.88c-.99,0-1.8-.8-1.8-1.8V22.08c0-.52,.23-1.02,.63-1.36l9.17-7.86c.67-.58,1.67-.58,2.34,0l.93,.8,1.62-1.91-2.21-1.87c-.89-.75-2.18-.75-3.06,0l-10.95,9.23c-.54,.45-.84,1.11-.84,1.81v22.85c0,1.51,1.26,2.74,2.81,2.74h20.97c1.55,0,2.81-1.23,2.81-2.74V20.89c0-.7-.31-1.36-.84-1.81l-6.96-5.89Z"/>
  <path class="cls-2" d="M29.98,36.1c0,.83,.68,1.51,1.51,1.51s1.51-.68,1.51-1.51-.68-1.51-1.51-1.51-1.51,.68-1.51,1.51Z"/>
  <path class="cls-2" d="M40.74,17.56l-6.96-5.89,3.67-4.32c.4-.47,.34-1.18-.13-1.58-.47-.4-1.18-.34-1.58,.13l-3.67,4.32-2.21-1.87c-1.63-1.38-4-1.38-5.64,0l-10.95,9.24c-.99,.83-1.55,2.05-1.55,3.34v22.85c0,2.61,2.15,4.73,4.8,4.73h20.97c2.65,0,4.8-2.12,4.8-4.73V20.89c0-1.29-.56-2.5-1.54-3.33Zm-.45,26.21c0,1.51-1.26,2.74-2.81,2.74H16.52c-1.55,0-2.81-1.23-2.81-2.74V20.91c0-.7,.31-1.36,.84-1.81l10.95-9.23c.89-.75,2.18-.75,3.06,0l2.21,1.87-1.62,1.91-.93-.8c-.67-.58-1.67-.58-2.34,0l-9.17,7.86c-.4,.34-.63,.84-.63,1.36v20.08c0,.99,.8,1.8,1.8,1.8h18.28c.99,0,1.8-.8,1.8-1.8V22.06c0-.52-.23-1.02-.62-1.36l-6.49-5.58,1.64-1.93,6.96,5.89c.53,.45,.84,1.11,.84,1.81v22.87Zm-7.74-16.34l-9.51,11.19c-.2,.23-.48,.35-.76,.35-.23,0-.46-.08-.64-.24-.42-.36-.47-.98-.11-1.4l9.51-11.19c.36-.42,.98-.47,1.4-.11,.42,.36,.47,.98,.11,1.4Zm2.45,8.67c0,1.93-1.57,3.51-3.51,3.51s-3.51-1.57-3.51-3.51,1.57-3.51,3.51-3.51,3.51,1.57,3.51,3.51Zm-7.98-16.5c.96,0,1.75-.78,1.75-1.75,0-.09-.01-.17-.03-.26l1.13-1.32c.26,.47,.43,1.01,.43,1.58,0,1.81-1.47,3.27-3.27,3.27s-3.27-1.47-3.27-3.27,1.47-3.27,3.27-3.27c.4,0,.79,.08,1.15,.22l-1.11,1.31s-.02,0-.03,0c-.96,0-1.75,.78-1.75,1.75s.78,1.75,1.75,1.75Zm-.97,9.23c0,1.93-1.57,3.51-3.51,3.51s-3.51-1.57-3.51-3.51,1.57-3.51,3.51-3.51,3.51,1.57,3.51,3.51Z"/>
  <path class="cls-2" d="M21.03,28.83c0,.84,.68,1.51,1.51,1.51s1.51-.68,1.51-1.51-.68-1.51-1.51-1.51-1.51,.68-1.51,1.51Z"/>
</svg>