<?xml version="1.0" encoding="UTF-8"?>
<svg id="Layer_1" data-name="Layer 1" xmlns="http://www.w3.org/2000/svg" viewBox="0 0 54 54">
  <defs>
    <style>
      .cls-1 {
        fill: #fe2458;
      }
    </style>
  </defs>
  <path class="cls-1" d="M33.21,41.57h13.2v4.43c0,1.1-.9,2-2,2h-9.2c-1.1,0-2-.9-2-2v-4.43h0Z"/>
  <path d="M5.53,29.01H22.65c1.1,0,2,.9,2,2v2.45H3.53v-2.45c0-1.1,.9-2,2-2Z" transform="translate(-12.54 9.67) rotate(-26.71)"/>
  <path d="M26.58,48H10.26c-1.55,0-2.81-1.26-2.81-2.81v-5.17l4.82-2.66H29.39v7.82c0,1.55-1.26,2.81-2.81,2.81Z"/>
  <path d="M17.36,35.32h9.49l-1.56-1.64c-1.06-1.11-2.75-1.36-4.08-.59l-3.85,2.23Z"/>
  <g>
    <path class="cls-1" d="M47.69,6h-15.76c-1.17,0-2.08,1.01-1.96,2.17l.08,.8h19.52l.08-.8c.12-1.16-.79-2.17-1.96-2.17Z"/>
    <polygon class="cls-1" points="33.07 39.01 46.55 39.01 49.38 10.92 30.25 10.92 33.07 39.01"/>
  </g>
</svg>