<svg width="54" height="54" viewBox="0 0 54 54" fill="none" xmlns="http://www.w3.org/2000/svg">
<rect x="2.86102e-06" y="-4.76837e-07" width="54" height="54" rx="27" fill="white"/>
<path d="M23 26.51C23 27.34 23.68 28.02 24.51 28.02C25.34 28.02 26.02 27.34 26.02 26.51C26.02 25.68 25.34 25 24.51 25C23.68 25 23 25.68 23 26.51Z" fill="#FE2458"/>
<path d="M27.0445 10.004L17.9582 10.7606L17.4986 5.11085C17.4491 4.49567 16.9046 4.03605 16.2894 4.08555C15.6742 4.13504 15.2146 4.67951 15.2641 5.2947L15.7237 10.9445L12.8387 11.1849C10.7103 11.3617 9.03449 13.0375 8.85065 15.173L7.64149 29.4495C7.52836 30.7364 7.99505 31.995 8.90721 32.9072L25.0646 49.0646C26.9102 50.9102 29.9295 50.8889 31.8033 49.0151L46.6314 34.1871C48.5052 32.3132 48.5264 29.2939 46.6809 27.4484L30.4952 11.2627C29.583 10.3505 28.3314 9.89089 27.0516 9.99696L27.0445 10.004ZM45.2596 28.8555C46.3273 29.9232 46.3061 31.6839 45.2101 32.7799L30.3891 47.6009C29.2931 48.6969 27.5324 48.7181 26.4647 47.6504L10.3002 31.4859C9.80524 30.991 9.55775 30.3051 9.61432 29.6121L10.8305 15.3427C10.9295 14.183 11.8417 13.2709 12.9943 13.1789L15.8793 12.9385L16.0843 15.4346L14.8611 15.5265C13.9772 15.5902 13.2701 16.2973 13.2064 17.1812L12.2801 29.2232C12.2377 29.7464 12.4286 30.2626 12.7963 30.6303L26.995 44.829C27.695 45.5291 28.8335 45.5361 29.5406 44.829L42.4665 31.9031C43.1665 31.2031 43.1736 30.0646 42.4665 29.3575L28.2607 15.1518C27.893 14.7841 27.3768 14.5932 26.8607 14.6285L18.3259 15.272L18.1208 12.7476L27.2071 11.991C27.9001 11.9344 28.586 12.1819 29.081 12.6769L45.2525 28.8484L45.2596 28.8555ZM28.2324 22.7744L29.4204 37.4115C29.4416 37.7155 29.3285 37.9984 29.1305 38.1964C28.9678 38.359 28.7486 38.4651 28.5082 38.4792C27.9567 38.5216 27.4829 38.1186 27.4405 37.567L26.2525 22.9299C26.2101 22.3784 26.6132 21.9046 27.1647 21.8622C27.7163 21.8198 28.19 22.2228 28.2324 22.7744ZM36.0955 27.1726C37.4602 28.5373 37.4673 30.7647 36.0955 32.1365C34.7237 33.5083 32.5034 33.5083 31.1316 32.1365C29.7598 30.7647 29.7598 28.5444 31.1316 27.1726C32.5034 25.8008 34.7237 25.8008 36.0955 27.1726ZM18.7855 21.148C19.4643 20.4692 19.4714 19.3591 18.7855 18.6732C18.7219 18.6095 18.6582 18.56 18.5804 18.5105L18.4461 16.7781C18.9623 16.9266 19.4643 17.1882 19.8674 17.5913C21.1472 18.8711 21.1402 20.943 19.8674 22.2158C18.5946 23.4886 16.5157 23.4886 15.2429 22.2158C13.9701 20.943 13.9701 18.8641 15.2429 17.5913C15.5257 17.3084 15.8581 17.0892 16.2116 16.9337L16.353 18.6449C16.353 18.6449 16.3389 18.659 16.3318 18.6661C15.653 19.3449 15.6459 20.4551 16.3318 21.141C17.0177 21.8269 18.1208 21.8269 18.8067 21.141L18.7855 21.148ZM24.6262 28.3605C25.9909 29.7252 25.998 31.9526 24.6262 33.3244C23.2544 34.6962 21.0341 34.6962 19.6623 33.3244C18.2905 31.9526 18.2905 29.7323 19.6623 28.3605C21.0341 26.9887 23.2544 26.9887 24.6262 28.3605Z" fill="#FE2458"/>
<path d="M23 26.51C23 27.35 23.68 28.02 24.51 28.02C25.34 28.02 26.02 27.34 26.02 26.51C26.02 25.68 25.34 25 24.51 25C23.68 25 23 25.68 23 26.51Z" fill="#FE2458"/>
</svg>
